<svg xmlns="http://www.w3.org/2000/svg" viewBox="0 0 195.38 62.16">
    <title>aida</title>
    <path d="M44.94,62.16l-3-9H20.33l-3.28,9H0L25,0H37.46l24.7,62.16ZM31.33,19.4l-.25-.08L24.7,40.57h13Z"/>
    <path d="M63.76,10.58V0H77.7V10.58Zm0,51.58V15.54H77.7V62.16Z"/>
    <path d="M83.33,62.16V0H104.5c7.72,0,13.86,1.34,18.22,3.78,8.82,5,14.37,14.62,14.37,27.3,0,20.5-12.1,31.08-31.5,31.08Zm23-13.94c9.16,0,14.87-5.72,14.87-17.06,0-11.08-5.63-17.22-14.78-17.22H99.2V48.22Z"/>
    <path d="M178.16,62.16l-3-9H153.55l-3.27,9H133.22L158.17,0h12.52l24.69,62.16ZM164.55,19.4l-.25-.08-6.38,21.25h13Z"/>
</svg>