<svg xmlns="http://www.w3.org/2000/svg" viewBox="0 0 788.61 505.46"><defs><style>.cls-1{fill:#f2f2f2;}.cls-2{fill:#ffb8b8;}.cls-3{fill:#2f2e41;}.cls-4{fill:#fff;}.cls-5{fill:#c1c1c1;}</style></defs><g id="레이어_2" data-name="레이어 2"><g id="레이어_1-2" data-name="레이어 1"><path class="cls-1" d="M736.64,503.62c-10.22-6.83-15.36-19.84-15.57-32.13-.07-4.12,1-8.9,4.67-10.73a6.4,6.4,0,0,1,9.17,6.78,62.47,62.47,0,0,1,5.3-11.51c1.83-3.09,4.39-6.3,8-6.6,4.15-.34,7.62,3.69,8.2,7.81s-.91,8.22-2.38,12.11a10.83,10.83,0,0,1,17.16-6.08c4.06,3.13,5.39,8.89,4.37,13.91s-4,9.42-7.33,13.33c-3.89,4.58-8.39,8.77-13.77,11.43s-11.76,3.68-17.49,1.87Z"/><path class="cls-2" d="M596.89,339a10.74,10.74,0,0,0,4.84-14.4,12.09,12.09,0,0,0-1-1.62l25-121.54-23.36-.3L585,321.15A10.8,10.8,0,0,0,596.9,339Z"/><path class="cls-2" d="M710.68,332.71a10.77,10.77,0,0,0-.9-16.45L699,192.64,676.56,199,694.2,319a10.8,10.8,0,0,0,16.48,13.73Z"/><polygon class="cls-2" points="638.59 492.16 626.33 492.16 620.5 444.87 638.59 444.87 638.59 492.16"/><path class="cls-3" d="M617.57,488.65h23.65v14.89H602.69a14.89,14.89,0,0,1,14.88-14.89Z"/><polygon class="cls-2" points="693.59 492.16 681.33 492.16 675.5 444.87 693.59 444.87 693.59 492.16"/><path class="cls-3" d="M672.57,488.65h23.65v14.89H657.69a14.89,14.89,0,0,1,14.88-14.89Z"/><circle class="cls-2" cx="641.77" cy="129.73" r="24.56"/><path class="cls-3" d="M676.3,462.32a4.35,4.35,0,0,1-4.24-3.49l-16.6-85.91a3.35,3.35,0,0,0-6.62.27l-9.29,83.68a4.29,4.29,0,0,1-4.09,3.82l-13.94.64a4.31,4.31,0,0,1-4.5-4.13l-5.35-129.26a4.28,4.28,0,0,1,1.51-3.45l3.09-2.64a4.34,4.34,0,0,1,2.8-1h72.27a4.31,4.31,0,0,1,4.31,4.31V457.36a4.3,4.3,0,0,1-4.12,4.3l-15,.66Z"/><path class="cls-4" d="M639.28,339.63c-11.69,0-22-3.12-27.19-12.2a4.37,4.37,0,0,1-.58-2.47L618,225.08a3.39,3.39,0,0,0-.68-2.25L599,198.8a4.31,4.31,0,0,1,.81-6h0l27.5-20.83a3.39,3.39,0,0,0,1.2-1.75l.8-2.81a4.31,4.31,0,0,1,4-3.12l20.18-.77a4.35,4.35,0,0,1,3.53,1.61l2.14,2.68a3.54,3.54,0,0,0,1,.85l33.75,18.65a4.3,4.3,0,0,1,2.22,3.72v.12c-7.87,32.8-7.42,74.26,1.39,130.48a4.3,4.3,0,0,1-2.58,4.06C687.65,328.81,661.06,339.63,639.28,339.63Z"/><path class="cls-4" d="M618.73,236.6H595.87a4.29,4.29,0,0,1-4.31-4.29,2.26,2.26,0,0,1,0-.26c.34-5.82,1-16.89,1.68-25.63,1-12.57,13.28-18.75,13.41-18.81l.24-.12,8.31,5.28L623,231.45a4.31,4.31,0,0,1-3.38,5.07,4,4,0,0,1-.84.08Z"/><path class="cls-4" d="M681.36,234.47a4.3,4.3,0,0,1-4.28-4.34c0-.14,0-.29,0-.44l4.22-38.81,8.15-6,.19,0c.08,0,8.77,1.09,12.66,10.81,2.77,6.93,7,19.73,9.27,26.74a4.31,4.31,0,0,1-2.77,5.42l-.31.08-26.11,6.35A4.06,4.06,0,0,1,681.36,234.47Z"/><path class="cls-3" d="M642.33,154.46c5.25-8.31-1.31-31.18-15.6-31.78-3.3-.14-4.57-4.94-5.69-8.05a12.43,12.43,0,0,1,1.61-10.78,20.42,20.42,0,0,1,8.68-7A30.1,30.1,0,1,1,648.19,154Z"/><path class="cls-5" d="M494,0H7A7,7,0,0,0,0,7V337a7,7,0,0,0,7,7H494a7,7,0,0,0,7-7V7A7,7,0,0,0,494,0Zm5,337a5,5,0,0,1-5,5H7a5,5,0,0,1-5-5V7A5,5,0,0,1,7,2H494a5,5,0,0,1,5,5Z"/><rect class="cls-5" x="1" y="28.04" width="499" height="2"/><circle class="cls-5" cx="18" cy="15" r="6"/><circle class="cls-5" cx="35.25" cy="15" r="6"/><circle class="cls-5" cx="52.5" cy="15" r="6"/><path class="cls-5" d="M403.83,96.46h-310a15.5,15.5,0,0,1,0-31h310a15.5,15.5,0,0,1,0,31Zm-310-29a13.5,13.5,0,0,0,0,27h310a13.5,13.5,0,0,0,0-27Z"/><path class="cls-5" d="M173.83,175.46h-60a15.5,15.5,0,0,1,0-31h60a15.5,15.5,0,0,1,0,31Zm-60-29a13.5,13.5,0,0,0,0,27h60a13.5,13.5,0,0,0,0-27Z"/><path class="cls-5" d="M173.83,227.46h-60a15.5,15.5,0,0,1,0-31h60a15.5,15.5,0,0,1,0,31Zm-60-29a13.5,13.5,0,0,0,0,27h60a13.5,13.5,0,0,0,0-27Z"/><path class="cls-5" d="M173.83,279.46h-60a15.5,15.5,0,0,1,0-31h60a15.5,15.5,0,1,1,0,31Zm-60-29a13.5,13.5,0,0,0,0,27h60a13.5,13.5,0,1,0,0-27Z"/><path class="cls-4" d="M182.83,88h-84a7,7,0,0,1,0-14h84a7,7,0,0,1,0,14Z"/><path class="cls-5" d="M393.33,84.46a7,7,0,1,1,7-7A7,7,0,0,1,393.33,84.46Zm0-12a5,5,0,1,0,5,5A5,5,0,0,0,393.33,72.46Z"/><path class="cls-5" d="M404.16,90.8a1,1,0,0,1-.71-.3l-7-7a1,1,0,0,1,1.42-1.42l7,7a1,1,0,0,1-.7,1.71Z"/><path class="cls-4" d="M389.33,169.46h-34a9.5,9.5,0,0,1,0-19h34a9.5,9.5,0,0,1,0,19Z"/><path class="cls-4" d="M389.33,221.46h-34a9.5,9.5,0,0,1,0-19h34a9.5,9.5,0,0,1,0,19Z"/><path class="cls-4" d="M389.33,273.46h-34a9.5,9.5,0,0,1,0-19h34a9.5,9.5,0,1,1,0,19Z"/><path class="cls-5" d="M787.61,505.46h-248a1,1,0,0,1,0-2h248a1,1,0,0,1,0,2Z"/></g></g></svg>