<svg xmlns="http://www.w3.org/2000/svg" viewBox="0 0 191.34 26.66" fill="#fff"><g id="레이어_2" data-name="레이어 2"><g id="레이어_1-2" data-name="레이어 1"><path d="M18.82,21.4H8.24L5.75,26.66H0L13.6,0h0L27.19,26.66H21.3ZM16.71,17l-3.17-6.69L10.38,17Z"/><path d="M30.55,0h6.17V26.66H30.55Z"/><path d="M43.07,12.15H53.85v4.76H43.07Z"/><path d="M85.38,0H91.8V21.38l13.12,0v5.26H85.38Z"/><path d="M166.52,0h10.11c8.73,0,14.71,5.26,14.71,13.33s-6,13.33-14.71,13.33H166.52Zm9.81,21.4c5.29,0,8.76-3.13,8.76-8.18S181.62,5,176.33,5h-3.39V21.4Z"/><path d="M120.46,0a13.22,13.22,0,1,0,13.22,13.22A13.22,13.22,0,0,0,120.46,0Zm0,21.4a8.18,8.18,0,1,1,8.18-8.18A8.18,8.18,0,0,1,120.46,21.4Z"/><path d="M71.54,21.4A8.18,8.18,0,1,1,77.82,8l3.7-3.41a13.22,13.22,0,1,0,0,17.28l-3.7-3.41A8.16,8.16,0,0,1,71.54,21.4Z"/><path d="M81.55,4.55l0,0,0,0Z"/><path d="M81.55,21.83l0,0,0,0Z"/><path d="M155.43,15.79c0,3.61-2.1,5.61-5.65,5.61s-5.65-2-5.65-5.61V0h-6.41V14.68c0,7.71,4.49,12,12.07,12s12.07-4.27,12.07-12V0h-6.42Z"/></g></g></svg>