<svg xmlns="http://www.w3.org/2000/svg" width="249.347" height="62.087" viewBox="0 0 249.347 62.087">
  <path id="패스_115" data-name="패스 115" d="M203.218,402.96l4.367-6.389q3.625,3.957,8.076,3.96a10.237,10.237,0,0,0,4.917-1.053,3.19,3.19,0,0,0,1.938-2.889q0-3.114-4.283-3.117a28.882,28.882,0,0,0-3.452.311,28.979,28.979,0,0,1-3.452.311q-7.125,0-7.125-6.018a5.772,5.772,0,0,1,1.178-3.386,7.567,7.567,0,0,1,2.758-2.441q-5.061-3.867-5.061-10.977A12.943,12.943,0,0,1,206.567,362a11.367,11.367,0,0,1,8.572-3.661A11.9,11.9,0,0,1,221.8,360.1l2.71-3.739,4.786,5.133-3.326,2.847a14.605,14.605,0,0,1,1.717,7.238q0,5.967-3.081,9.535a9.84,9.84,0,0,1-7.777,3.571,14.582,14.582,0,0,1-1.986-.179l-1.137-.209a6.526,6.526,0,0,0-1.454.712c-.843.467-1.268.951-1.268,1.454,0,.873.634,1.316,1.908,1.316a14.08,14.08,0,0,0,2.871-.5,14.829,14.829,0,0,1,3.452-.491q10.077,0,10.08,9.571a9.805,9.805,0,0,1-4.044,8.315,15.792,15.792,0,0,1-9.745,3.021,18.324,18.324,0,0,1-12.293-4.738m6.933-31.651a7.929,7.929,0,0,0,1.436,4.959,4.632,4.632,0,0,0,3.876,1.872,4.361,4.361,0,0,0,3.757-1.824,8.4,8.4,0,0,0,1.316-5.013,7.064,7.064,0,0,0-1.412-4.457,4.414,4.414,0,0,0-3.661-1.819,4.8,4.8,0,0,0-3.84,1.753,6.836,6.836,0,0,0-1.472,4.528" transform="translate(-140.203 -345.61)" fill="#fff"/>
  <path id="패스_116" data-name="패스 116" d="M268.645,368.177a6.354,6.354,0,0,0-4.056-1.49,5.287,5.287,0,0,0-4.265,2.572,10.431,10.431,0,0,0-1.866,6.281v19.848H251.53V360.5h6.927v3.212a9.192,9.192,0,0,1,7.7-3.834,9.556,9.556,0,0,1,5.408,1.28Z" transform="translate(-159.671 -347.025)" fill="#fff"/>
  <path id="패스_117" data-name="패스 117" d="M292.58,386.76V358.555h-3.84v-6.682H299.5V386.76Zm3.529-48.37a3.615,3.615,0,0,1,2.841,1.376,5.283,5.283,0,0,1,0,6.652,3.622,3.622,0,0,1-5.683,0,5.283,5.283,0,0,1,0-6.652,3.615,3.615,0,0,1,2.841-1.376" transform="translate(-174.622 -338.39)" fill="#fff"/>
  <path id="패스_118" data-name="패스 118" d="M332.247,387.078v-2.124a6.681,6.681,0,0,1-2.907,1.926,11.283,11.283,0,0,1-4.223.814,11.618,11.618,0,0,1-9.739-4.612q-3.553-4.612-3.547-12.879t4.074-13.442a12.48,12.48,0,0,1,10.211-5.186,11.832,11.832,0,0,1,6.132,1.633V339.18l6.921.132v47.766Zm0-26.506a6.724,6.724,0,0,0-4.618-2.07,7.528,7.528,0,0,0-6.383,2.961q-2.234,2.97-2.237,8.5,0,10.812,8.9,10.809a5.968,5.968,0,0,0,2.447-.694,4.5,4.5,0,0,0,1.9-1.412v-18.1Z" transform="translate(-183.899 -338.707)" fill="#fff"/>
  <path id="패스_119" data-name="패스 119" d="M362.97,377.872q0-7.968,3.912-12.969a12.454,12.454,0,0,1,10.331-5.013q6.748,0,10.474,4.815t3.733,13.16q0,8.327-3.8,13.238a13.544,13.544,0,0,1-20.907-.054q-3.751-4.944-3.745-13.178m7.172,0q0,11.467,7.065,11.467a5.833,5.833,0,0,0,5.139-2.979q1.9-2.979,1.9-8.488,0-11.306-7.035-11.3a5.868,5.868,0,0,0-5.156,2.979q-1.911,2.988-1.908,8.321" transform="translate(-204.447 -347.029)" fill="#fff"/>
  <path id="패스_120" data-name="패스 120" d="M435.683,395.4V375.256q0-4.451-1.448-6.5A5.411,5.411,0,0,0,429.5,366.7a6.444,6.444,0,0,0-3.248,1.011,7.781,7.781,0,0,0-2.692,2.506v25.19H416.63V360.522h4.977l1.268,3.26q2.818-3.876,8.327-3.882a10.215,10.215,0,0,1,8.339,3.727q3.051,3.724,3.057,10.4V395.4Z" transform="translate(-226.008 -347.033)" fill="#fff"/>
  <path id="패스_121" data-name="패스 121" d="M494.767,380.432H473.578a9.55,9.55,0,0,0,2.429,6.473,7.968,7.968,0,0,0,6.018,2.309q4.72,0,7.178-2.847l2.68,6.185q-3.643,3.464-10.869,3.464a13.215,13.215,0,0,1-10.684-4.666q-3.93-4.666-3.93-13.023,0-8.219,4.325-13.328a13.2,13.2,0,0,1,10.385-5.109,13,13,0,0,1,10.343,4.516,16.964,16.964,0,0,1,3.9,11.5,25.892,25.892,0,0,1-.586,4.522m-20.811-6.191h14.47q-.718-7.546-7.154-7.549-5.9.009-7.316,7.549" transform="translate(-246.006 -347.029)" fill="#fff"/>
  <path id="패스_139" data-name="패스 139" d="M130.889,351.606H98.927l-.006-.006-.006.006H97.97v32.907l15.643,15.637H146.52V367.243Zm0,1.89,13.747,13.747H130.889Zm-17.27,44.763L99.872,384.513h13.747Zm0-15.087h-14.3V353.879l14.3,14.3ZM100.267,352.94h29.276v14.3H114.57Zm29.276,15.637v14.6h-14.59v-14.6h14.59Zm-14.59,30.233v-14.3h14.991l14.3,14.3Zm30.233-.951-14.3-14.3V368.577h14.3Z" transform="translate(-97.97 -343.698)" fill="#fff"/>
  <rect id="사각형_11" data-name="사각형 11" width="14.59" height="14.596" transform="translate(16.983 24.879)" fill="#fff"/>
</svg>
